<?xml version="1.0" encoding="UTF-8" standalone="no"?>
<!DOCTYPE svg PUBLIC "-//W3C//DTD SVG 1.1//EN" "http://www.w3.org/Graphics/SVG/1.1/DTD/svg11.dtd">
<svg version="1.1" xmlns="http://www.w3.org/2000/svg" xmlns:xlink="http://www.w3.org/1999/xlink" preserveAspectRatio="xMidYMid meet" viewBox="194.9401987864458 133.65346534653503 318.05980121355424 329.346534653465" width="314.06" height="325.35"><defs><path d="M369.42 134.68L377.57 197.24L377.57 197.38L380.81 198.27L384.56 199.48L388.26 200.83L391.88 202.32L395.43 203.95L398.91 205.72L402.31 207.62L403.46 208.32L453.26 170L476.49 193.23L438.09 243.13L439.95 246.35L441.8 249.85L443.52 253.43L445.11 257.08L446.56 260.81L447.87 264.61L448.14 265.49L510 273.55L510 306.4L451.63 314L450.94 317.87L450.06 321.86L449.04 325.78L447.87 329.65L446.56 333.45L445.11 337.18L443.52 340.83L441.8 344.41L439.95 347.91L438.45 350.51L476.75 400.29L453.52 423.52L404.14 385.52L402.31 386.64L398.91 388.54L395.43 390.31L391.88 391.94L388.26 393.43L384.56 394.78L380.81 395.98L377.12 397L377.57 397L377.57 397.03L377.57 397.03L377.57 397.45L369.42 460L336.57 460L336.57 459.97L336.52 459.97L328.37 397.42L328.37 397L328.82 397L325.13 395.98L321.38 394.78L317.68 393.43L314.06 391.94L310.51 390.31L307.03 388.54L303.63 386.64L301.82 385.53L252.42 423.55L229.19 400.32L267.5 350.53L265.99 347.91L264.14 344.41L262.42 340.83L260.83 337.18L259.38 333.45L258.07 329.65L256.9 325.78L255.88 321.86L255 317.87L254.32 314.03L195.94 306.43L195.94 273.58L257.8 265.52L258.07 264.61L259.38 260.81L260.83 257.08L262.42 253.43L264.14 249.85L265.99 246.35L267.84 243.15L229.45 193.26L252.68 170.03L302.46 208.34L303.63 207.62L307.03 205.72L310.51 203.95L314.06 202.32L317.68 200.83L321.38 199.48L325.13 198.27L328.37 197.38L328.37 197.21L336.52 134.65L369.37 134.65L369.37 134.68L369.42 134.68ZM349.15 254.31L347.27 254.49L345.41 254.75L343.58 255.08L341.77 255.48L339.99 255.94L338.24 256.47L336.52 257.06L334.83 257.72L333.17 258.44L331.55 259.21L329.96 260.05L328.42 260.94L326.91 261.89L325.44 262.9L324.01 263.95L322.63 265.06L321.3 266.22L320.01 267.42L318.76 268.67L317.57 269.97L316.43 271.31L315.34 272.7L314.31 274.12L313.33 275.58L312.41 277.09L311.55 278.63L310.75 280.2L310.01 281.81L309.33 283.45L308.72 285.12L308.18 286.82L307.7 288.55L307.29 290.3L306.95 292.08L306.69 293.88L306.5 295.71L306.38 297.55L306.34 299.4L306.38 301.25L306.5 303.1L306.69 304.92L306.95 306.72L307.29 308.5L307.7 310.26L308.18 311.99L308.72 313.69L309.33 315.36L310.01 317L310.75 318.6L311.55 320.18L312.41 321.72L313.33 323.22L314.31 324.68L315.34 326.11L316.43 327.49L317.57 328.83L318.76 330.13L320.01 331.38L321.3 332.59L322.63 333.74L324.01 334.85L325.44 335.91L326.91 336.91L328.42 337.86L329.96 338.75L331.55 339.59L333.17 340.37L334.83 341.09L336.52 341.74L338.24 342.34L339.99 342.86L341.77 343.33L343.58 343.72L345.41 344.05L347.27 344.31L349.15 344.49L351.05 344.61L352.97 344.64L354.89 344.61L356.79 344.49L358.67 344.31L360.53 344.05L362.36 343.72L364.17 343.33L365.95 342.86L367.7 342.34L369.42 341.74L371.11 341.09L372.77 340.37L374.39 339.59L375.98 338.75L377.52 337.86L379.03 336.91L380.5 335.91L381.93 334.85L383.31 333.74L384.65 332.59L385.94 331.38L387.18 330.13L388.37 328.83L389.51 327.49L390.6 326.11L391.63 324.68L392.61 323.22L393.53 321.72L394.39 320.18L395.19 318.6L395.93 317L396.61 315.36L397.22 313.69L397.77 311.99L398.24 310.26L398.65 308.5L398.99 306.72L399.25 304.92L399.44 303.1L399.56 301.25L399.6 299.4L399.56 297.55L399.44 295.71L399.25 293.88L398.99 292.08L398.65 290.3L398.24 288.55L397.77 286.82L397.22 285.12L396.61 283.45L395.93 281.81L395.19 280.2L394.39 278.63L393.53 277.09L392.61 275.58L391.63 274.12L390.6 272.7L389.51 271.31L388.37 269.97L387.18 268.67L385.94 267.42L384.65 266.22L383.31 265.06L381.93 263.95L380.5 262.9L379.03 261.89L377.52 260.94L375.98 260.05L374.39 259.21L372.77 258.44L371.11 257.72L369.42 257.06L367.7 256.47L365.95 255.94L364.17 255.48L362.36 255.08L360.53 254.75L358.67 254.49L356.79 254.31L354.89 254.2L352.97 254.16L351.05 254.2L349.15 254.31Z" id="d1fs7XeCyU"></path></defs><g><g><use xlink:href="#d1fs7XeCyU" opacity="1" fill="#404448" fill-opacity="1"></use></g></g></svg>