<?xml version="1.0" encoding="UTF-8" standalone="no"?>
<!DOCTYPE svg PUBLIC "-//W3C//DTD SVG 1.1//EN" "http://www.w3.org/Graphics/SVG/1.1/DTD/svg11.dtd">
<svg version="1.1" xmlns="http://www.w3.org/2000/svg" xmlns:xlink="http://www.w3.org/1999/xlink" preserveAspectRatio="xMidYMid meet" viewBox="181.49999999999991 159 214.22400000000007 314" width="210.22" height="310"><defs><path d="M344.28 160.15L339.19 162.19L333.68 164.65L328.29 167.31L323.02 170.18L317.88 173.24L312.86 176.49L307.98 179.92L303.24 183.54L298.65 187.33L294.21 191.29L289.92 195.42L285.79 199.71L281.83 204.15L278.04 208.74L274.42 213.48L270.99 218.36L267.74 223.38L264.68 228.52L261.81 233.79L259.15 239.18L256.69 244.69L254.44 250.31L252.41 256.03L250.6 261.85L249.01 267.77L247.65 273.78L246.53 279.87L245.65 286.05L245.01 292.3L244.63 298.61L244.5 305L244.63 311.39L245.01 317.7L245.65 323.95L246.53 330.13L247.65 336.22L249.01 342.23L250.6 348.15L252.41 353.97L254.44 359.69L256.69 365.31L259.15 370.82L261.81 376.21L264.68 381.48L267.74 386.62L270.99 391.64L274.42 396.52L278.04 401.26L281.83 405.85L285.79 410.29L289.92 414.58L294.21 418.71L298.65 422.67L303.24 426.46L307.98 430.08L312.86 433.51L317.88 436.76L323.02 439.82L328.29 442.69L333.68 445.35L339.19 447.81L344.81 450.06L350.53 452.09L356.35 453.9L362.27 455.49L368.28 456.85L374.37 457.97L380.55 458.85L386.8 459.49L392.72 459.85L392.19 460.06L386.47 462.09L380.65 463.9L374.73 465.49L368.72 466.85L362.63 467.97L356.45 468.85L350.2 469.49L343.89 469.87L337.5 470L331.11 469.87L324.8 469.49L318.55 468.85L312.37 467.97L306.28 466.85L300.27 465.49L294.35 463.9L288.53 462.09L282.81 460.06L277.19 457.81L271.68 455.35L266.29 452.69L261.02 449.82L255.88 446.76L250.86 443.51L245.98 440.08L241.24 436.46L236.65 432.67L232.21 428.71L227.92 424.58L223.79 420.29L219.83 415.85L216.04 411.26L212.42 406.52L208.99 401.64L205.74 396.62L202.68 391.48L199.81 386.21L197.15 380.82L194.69 375.31L192.44 369.69L190.41 363.97L188.6 358.15L187.01 352.23L185.65 346.22L184.53 340.13L183.65 333.95L183.01 327.7L182.63 321.39L182.5 315L182.63 308.61L183.01 302.3L183.65 296.05L184.53 289.87L185.65 283.78L187.01 277.77L188.6 271.85L190.41 266.03L192.44 260.31L194.69 254.69L197.15 249.18L199.81 243.79L202.68 238.52L205.74 233.38L208.99 228.36L212.42 223.48L216.04 218.74L219.83 214.15L223.79 209.71L227.92 205.42L232.21 201.29L236.65 197.33L241.24 193.54L245.98 189.92L250.86 186.49L255.88 183.24L261.02 180.18L266.29 177.31L271.68 174.65L277.19 172.19L282.81 169.94L288.53 167.91L294.35 166.1L300.27 164.51L306.28 163.15L312.37 162.03L318.55 161.15L324.8 160.51L331.11 160.13L337.5 160L343.89 160.13L344.28 160.15Z" id="b7pnEST7q"></path></defs><g><g><use xlink:href="#b7pnEST7q" opacity="1" fill="#ff7200" fill-opacity="1"></use></g></g></svg>